<mxfile host="app.diagrams.net" modified="2024-03-22T13:31:32.078Z" agent="Mozilla/5.0 (Windows NT 10.0; Win64; x64) AppleWebKit/537.36 (KHTML, like Gecko) Chrome/122.0.0.0 Safari/537.36 Edg/122.0.0.0" etag="dG2qkhfyEpeSO6ndWxl_" version="24.0.7" type="github">
  <diagram name="Page-1" id="fc2ac565-0d4e-3f0d-88b0-a54af1634ed7">
    <mxGraphModel dx="1021" dy="646" grid="1" gridSize="19" guides="1" tooltips="1" connect="0" arrows="1" fold="1" page="1" pageScale="1.5" pageWidth="1169" pageHeight="827" background="none" math="0" shadow="0">
      <root>
        <mxCell id="0" style=";html=1;" />
        <mxCell id="1" style=";html=1;" parent="0" />
        <mxCell id="75" value="计划阶段" style="align=left;strokeColor=#CCCCCC;html=1;" parent="1" vertex="1">
          <mxGeometry x="297.0000000000003" y="149.99999999999977" width="319.9999999999997" height="20.000000000000014" as="geometry" />
        </mxCell>
        <mxCell id="80" value="需求分析" style="align=left;strokeColor=#CCCCCC;html=1;" parent="1" vertex="1">
          <mxGeometry x="297" y="170.00000000000023" width="320" height="20" as="geometry" />
        </mxCell>
        <mxCell id="85" value="规格说明" style="align=left;strokeColor=#CCCCCC;html=1;" parent="1" vertex="1">
          <mxGeometry x="296.9999999999999" y="190.00000000000023" width="320.0000000000001" height="20" as="geometry" />
        </mxCell>
        <mxCell id="90" value="软件设计" style="align=left;strokeColor=#CCCCCC;html=1;" parent="1" vertex="1">
          <mxGeometry x="296.9999999999999" y="210.00000000000045" width="320.0000000000001" height="20" as="geometry" />
        </mxCell>
        <mxCell id="95" value="软件实现" style="align=left;strokeColor=#CCCCCC;html=1;" parent="1" vertex="1">
          <mxGeometry x="297.0000000000006" y="230.00000000000068" width="319.9999999999994" height="20" as="geometry" />
        </mxCell>
        <mxCell id="100" value="增加订单功能测试" style="align=left;strokeColor=#CCCCCC;html=1;" parent="1" vertex="1">
          <mxGeometry x="297.0000000000006" y="250.00000000000057" width="319.9999999999994" height="20" as="geometry" />
        </mxCell>
        <mxCell id="2" value="Task Name" style="strokeWidth=1;fontStyle=0;html=1;" parent="1" vertex="1">
          <mxGeometry x="297" y="130" width="320" height="20" as="geometry" />
        </mxCell>
        <mxCell id="67c90442a009f359-289" value="查询订单测试" style="align=left;strokeColor=#CCCCCC;html=1;" parent="1" vertex="1">
          <mxGeometry x="297.0000000000006" y="270.00000000000057" width="319.9999999999994" height="20" as="geometry" />
        </mxCell>
        <mxCell id="67c90442a009f359-290" value="修改订单测试" style="align=left;strokeColor=#CCCCCC;html=1;" parent="1" vertex="1">
          <mxGeometry x="297.0000000000006" y="290.00000000000057" width="319.9999999999994" height="20" as="geometry" />
        </mxCell>
        <mxCell id="67c90442a009f359-291" value="" style="align=left;strokeColor=#CCCCCC;html=1;" parent="1" vertex="1">
          <mxGeometry x="617" y="150" width="840" height="20" as="geometry" />
        </mxCell>
        <mxCell id="4" value="24/3/15" style="strokeWidth=1;fontStyle=0;html=1;" parent="1" vertex="1">
          <mxGeometry x="617" y="130" width="70" height="20" as="geometry" />
        </mxCell>
        <mxCell id="67c90442a009f359-278" value="24/3/17" style="strokeWidth=1;fontStyle=0;html=1;" parent="1" vertex="1">
          <mxGeometry x="687" y="130" width="70" height="20" as="geometry" />
        </mxCell>
        <mxCell id="67c90442a009f359-279" value="24/3/19" style="strokeWidth=1;fontStyle=0;html=1;" parent="1" vertex="1">
          <mxGeometry x="757" y="130" width="70" height="20" as="geometry" />
        </mxCell>
        <mxCell id="67c90442a009f359-280" value="24/3/21" style="strokeWidth=1;fontStyle=0;html=1;" parent="1" vertex="1">
          <mxGeometry x="827" y="130" width="70" height="20" as="geometry" />
        </mxCell>
        <mxCell id="67c90442a009f359-281" value="24/3/23" style="strokeWidth=1;fontStyle=0;html=1;" parent="1" vertex="1">
          <mxGeometry x="897" y="130" width="70" height="20" as="geometry" />
        </mxCell>
        <mxCell id="67c90442a009f359-282" value="24/3/25" style="strokeWidth=1;fontStyle=0;html=1;" parent="1" vertex="1">
          <mxGeometry x="967" y="130" width="70" height="20" as="geometry" />
        </mxCell>
        <mxCell id="67c90442a009f359-283" value="24/4/27" style="strokeWidth=1;fontStyle=0;html=1;" parent="1" vertex="1">
          <mxGeometry x="1037" y="130" width="70" height="20" as="geometry" />
        </mxCell>
        <mxCell id="67c90442a009f359-284" value="24/4/29" style="strokeWidth=1;fontStyle=0;html=1;" parent="1" vertex="1">
          <mxGeometry x="1107" y="130" width="70" height="20" as="geometry" />
        </mxCell>
        <mxCell id="67c90442a009f359-285" value="24/3/31" style="strokeWidth=1;fontStyle=0;html=1;" parent="1" vertex="1">
          <mxGeometry x="1177" y="130" width="70" height="20" as="geometry" />
        </mxCell>
        <mxCell id="67c90442a009f359-286" value="24/4/2" style="strokeWidth=1;fontStyle=0;html=1;" parent="1" vertex="1">
          <mxGeometry x="1247" y="130" width="70" height="20" as="geometry" />
        </mxCell>
        <mxCell id="67c90442a009f359-287" value="24/4/4" style="strokeWidth=1;fontStyle=0;html=1;" parent="1" vertex="1">
          <mxGeometry x="1317" y="130" width="70" height="20" as="geometry" />
        </mxCell>
        <mxCell id="67c90442a009f359-288" value="24/4/6" style="strokeWidth=1;fontStyle=0;html=1;" parent="1" vertex="1">
          <mxGeometry x="1387" y="130" width="70" height="20" as="geometry" />
        </mxCell>
        <mxCell id="67c90442a009f359-292" value="" style="align=left;strokeColor=#CCCCCC;html=1;" parent="1" vertex="1">
          <mxGeometry x="617" y="170" width="840" height="20" as="geometry" />
        </mxCell>
        <mxCell id="67c90442a009f359-293" value="" style="align=left;strokeColor=#CCCCCC;html=1;" parent="1" vertex="1">
          <mxGeometry x="617" y="190" width="840" height="20" as="geometry" />
        </mxCell>
        <mxCell id="67c90442a009f359-294" value="" style="align=left;strokeColor=#CCCCCC;html=1;" parent="1" vertex="1">
          <mxGeometry x="617" y="210" width="840" height="20" as="geometry" />
        </mxCell>
        <mxCell id="67c90442a009f359-295" value="" style="align=left;strokeColor=#CCCCCC;html=1;" parent="1" vertex="1">
          <mxGeometry x="617" y="230" width="840" height="20" as="geometry" />
        </mxCell>
        <mxCell id="67c90442a009f359-296" value="" style="align=left;strokeColor=#CCCCCC;html=1;" parent="1" vertex="1">
          <mxGeometry x="617" y="250" width="840" height="20" as="geometry" />
        </mxCell>
        <mxCell id="67c90442a009f359-297" value="" style="align=left;strokeColor=#CCCCCC;html=1;" parent="1" vertex="1">
          <mxGeometry x="617" y="270" width="840" height="20" as="geometry" />
        </mxCell>
        <mxCell id="67c90442a009f359-298" value="" style="align=left;strokeColor=#CCCCCC;html=1;" parent="1" vertex="1">
          <mxGeometry x="617" y="290" width="840" height="20" as="geometry" />
        </mxCell>
        <mxCell id="67c90442a009f359-299" value="" style="whiteSpace=wrap;html=1;strokeWidth=2;fillColor=#dae8fc;fontSize=14;align=center;strokeColor=#6c8ebf;" parent="1" vertex="1">
          <mxGeometry x="617" y="150" width="113" height="20" as="geometry" />
        </mxCell>
        <mxCell id="67c90442a009f359-300" value="" style="whiteSpace=wrap;html=1;strokeWidth=2;fillColor=#DAE8FC;fontSize=14;align=center;strokeColor=#6c8ebf;fillStyle=auto;" parent="1" vertex="1">
          <mxGeometry x="730" y="170" width="60" height="20" as="geometry" />
        </mxCell>
        <mxCell id="67c90442a009f359-301" value="" style="whiteSpace=wrap;html=1;strokeWidth=2;fillColor=#dae8fc;fontSize=14;align=center;strokeColor=#6c8ebf;" parent="1" vertex="1">
          <mxGeometry x="757" y="190" width="73" height="20" as="geometry" />
        </mxCell>
        <mxCell id="67c90442a009f359-302" value="" style="whiteSpace=wrap;html=1;strokeWidth=2;fillColor=#dae8fc;fontSize=14;align=center;strokeColor=#6c8ebf;" parent="1" vertex="1">
          <mxGeometry x="830" y="210" width="70" height="20" as="geometry" />
        </mxCell>
        <mxCell id="67c90442a009f359-303" value="" style="whiteSpace=wrap;html=1;strokeWidth=2;fillColor=#dae8fc;fontSize=14;align=center;strokeColor=#6c8ebf;" parent="1" vertex="1">
          <mxGeometry x="900" y="230" width="80" height="20" as="geometry" />
        </mxCell>
        <mxCell id="67c90442a009f359-304" value="" style="whiteSpace=wrap;html=1;strokeWidth=2;fillColor=#dae8fc;fontSize=14;align=center;strokeColor=#6c8ebf;" parent="1" vertex="1">
          <mxGeometry x="932" y="250" width="227" height="20" as="geometry" />
        </mxCell>
        <mxCell id="67c90442a009f359-305" value="" style="whiteSpace=wrap;html=1;strokeWidth=2;fillColor=#dae8fc;fontSize=14;align=center;strokeColor=#6c8ebf;" parent="1" vertex="1">
          <mxGeometry x="950" y="270" width="228" height="20" as="geometry" />
        </mxCell>
        <mxCell id="67c90442a009f359-306" value="" style="whiteSpace=wrap;html=1;strokeWidth=2;fillColor=#dae8fc;fontSize=14;align=center;strokeColor=#6c8ebf;" parent="1" vertex="1">
          <mxGeometry x="950" y="290" width="228" height="20" as="geometry" />
        </mxCell>
        <mxCell id="DwQVG3lVPnxKN4q3OHz_-102" value="" style="align=left;strokeColor=#CCCCCC;html=1;" vertex="1" parent="1">
          <mxGeometry x="617" y="310" width="840" height="20" as="geometry" />
        </mxCell>
        <mxCell id="DwQVG3lVPnxKN4q3OHz_-103" value="删除订单测试" style="align=left;strokeColor=#CCCCCC;html=1;" vertex="1" parent="1">
          <mxGeometry x="297.0000000000006" y="310.00000000000057" width="319.9999999999994" height="20" as="geometry" />
        </mxCell>
        <mxCell id="DwQVG3lVPnxKN4q3OHz_-104" value="验收测试" style="align=left;strokeColor=#CCCCCC;html=1;" vertex="1" parent="1">
          <mxGeometry x="297.0000000000006" y="330.00000000000057" width="319.9999999999994" height="20" as="geometry" />
        </mxCell>
        <mxCell id="DwQVG3lVPnxKN4q3OHz_-105" value="" style="align=left;strokeColor=#CCCCCC;html=1;" vertex="1" parent="1">
          <mxGeometry x="617" y="330" width="840" height="20" as="geometry" />
        </mxCell>
        <mxCell id="DwQVG3lVPnxKN4q3OHz_-106" value="" style="whiteSpace=wrap;html=1;strokeWidth=2;fillColor=#dae8fc;fontSize=14;align=center;strokeColor=#6c8ebf;" vertex="1" parent="1">
          <mxGeometry x="950" y="310" width="228" height="20" as="geometry" />
        </mxCell>
        <mxCell id="DwQVG3lVPnxKN4q3OHz_-107" value="" style="whiteSpace=wrap;html=1;strokeWidth=2;fillColor=#dae8fc;fontSize=14;align=center;strokeColor=#6c8ebf;" vertex="1" parent="1">
          <mxGeometry x="1178" y="330" width="120" height="20" as="geometry" />
        </mxCell>
        <mxCell id="DwQVG3lVPnxKN4q3OHz_-108" value="产品发布" style="align=left;strokeColor=#CCCCCC;html=1;" vertex="1" parent="1">
          <mxGeometry x="297.0000000000006" y="350.00000000000057" width="319.9999999999994" height="20" as="geometry" />
        </mxCell>
        <mxCell id="DwQVG3lVPnxKN4q3OHz_-109" value="" style="align=left;strokeColor=#CCCCCC;html=1;" vertex="1" parent="1">
          <mxGeometry x="617" y="350" width="840" height="20" as="geometry" />
        </mxCell>
        <mxCell id="DwQVG3lVPnxKN4q3OHz_-111" value="" style="whiteSpace=wrap;html=1;strokeWidth=2;fillColor=#dae8fc;fontSize=14;align=center;strokeColor=#6c8ebf;" vertex="1" parent="1">
          <mxGeometry x="1298" y="350" width="100" height="20" as="geometry" />
        </mxCell>
      </root>
    </mxGraphModel>
  </diagram>
</mxfile>
